<svg width="27" height="27" viewBox="0 0 27 27" fill="none" xmlns="http://www.w3.org/2000/svg">
<path d="M20.9102 6.08008L13.4935 13.4967L6.07684 20.9134" stroke="white" stroke-width="2.5" stroke-linecap="round" stroke-linejoin="round"/>
<path d="M16.074 22.8728L21.2239 7.41232C21.5641 6.3919 20.5915 5.41931 19.5711 5.75945L4.11593 10.9147C3.19117 11.223 2.91481 12.3922 3.60572 13.0831L5.17887 14.6562C5.6625 15.1399 5.72628 15.8733 5.4074 16.4792C4.65803 17.9088 4.88124 19.7158 6.08236 20.917C7.28349 22.1181 9.09048 22.3413 10.5201 21.5919C11.126 21.273 11.8594 21.3368 12.3431 21.8205L13.9162 23.3936C14.6018 24.0792 15.7764 23.8081 16.0846 22.8834L16.074 22.8728Z" stroke="white" stroke-width="2.5" stroke-linecap="round" stroke-linejoin="round"/>
</svg>
