<svg width="27" height="28" viewBox="0 0 27 28" fill="none" xmlns="http://www.w3.org/2000/svg">
<path d="M20.9102 6.57812L6.07684 21.4114" stroke="white" stroke-width="2.5" stroke-linecap="round" stroke-linejoin="round"/>
<path d="M16.074 23.3728L21.2239 7.91232C21.5641 6.8919 20.5915 5.91931 19.5711 6.25945L4.11593 11.4147C3.19117 11.723 2.91481 12.8922 3.60572 13.5831L5.17887 15.1562C5.6625 15.6399 5.72628 16.3733 5.4074 16.9792C4.65803 18.4088 4.88124 20.2158 6.08236 21.417C7.28349 22.6181 9.09048 22.8413 10.5201 22.0919C11.126 21.773 11.8594 21.8368 12.3431 22.3205L13.9162 23.8936C14.6018 24.5792 15.7764 24.3081 16.0846 23.3834L16.074 23.3728Z" stroke="white" stroke-width="2.5" stroke-linecap="round" stroke-linejoin="round"/>
</svg>
