<svg width="53" height="38" viewBox="0 0 53 38" fill="none" xmlns="http://www.w3.org/2000/svg">
<path fill-rule="evenodd" clip-rule="evenodd" d="M18.1978 9.70042C13.0594 9.70042 8.89331 13.8639 8.89331 18.9992C8.89331 24.1345 13.0594 28.298 18.1978 28.298H29.3266V23.4502H19.3718C18.9763 23.4502 18.6542 23.1299 18.6542 22.7331V15.3403C18.6542 14.9451 18.9747 14.6232 19.3718 14.6232H33.4848C36.0657 14.6232 38.1589 16.7151 38.1589 19.2945V36.4063C38.1589 36.8016 37.8385 37.1234 37.4414 37.1234H18.1978C8.18203 37.125 0.0625 29.0104 0.0625 18.9992C0.0625 8.98801 8.18203 0.875 18.1978 0.875H35.6312C44.8012 0.875 52.0922 8.30529 52.0922 17.4697V22.6862C52.0922 23.0815 51.7717 23.4033 51.3747 23.4033H43.9774C43.5819 23.4033 43.2598 23.0831 43.2598 22.6862V17.4697C43.2598 13.1797 39.9238 9.70198 35.6312 9.70198H18.1978V9.70042Z" fill="white"/>
</svg>
